<?xml version="1.0" encoding="iso-8859-1"?>
<!-- Generator: Adobe Illustrator 19.0.0, SVG Export Plug-In . SVG Version: 6.00 Build 0)  -->
<svg version="1.1" id="Capa_1" xmlns="http://www.w3.org/2000/svg" xmlns:xlink="http://www.w3.org/1999/xlink" x="0px" y="0px"
	 viewBox="0 0 512 512" style="enable-background:new 0 0 512 512;" xml:space="preserve">
<path style="fill:#6D3326;" d="M271,75v62c0,8.401-6.599,15-15,15s-15-6.599-15-15V75c0-8.401,6.599-15,15-15S271,66.599,271,75z"/>
<path style="fill:#55271A;" d="M271,75v62c0,8.401-6.599,15-15,15V60C264.401,60,271,66.599,271,75z"/>
<path style="fill:#6D3326;" d="M421,407v15c0,49.501-40.499,90-90,90c-31.199,0-58.801-16.199-75-40.499
	C239.801,495.801,212.199,512,181,512c-49.501,0-90-40.499-90-90v-15c0-8.401,6.599-15,15-15s15,6.599,15,15v15
	c0,32.999,27.001,60,60,60s60-27.001,60-60V287c0-8.401,6.599-15,15-15s15,6.599,15,15v135c0,32.999,27.001,60,60,60
	s60-27.001,60-60v-15c0-8.401,6.599-15,15-15S421,398.599,421,407z"/>
<path style="fill:#55271A;" d="M421,407v15c0,49.501-40.499,90-90,90c-31.199,0-58.801-16.199-75-40.499V272c8.401,0,15,6.599,15,15
	v135c0,32.999,27.001,60,60,60s60-27.001,60-60v-15c0-8.401,6.599-15,15-15S421,398.599,421,407z"/>
<path style="fill:#3E5959;" d="M346,0H166c-8.401,0-15,6.599-15,15c0,41.4,33.6,75,75,75h60c41.4,0,75-33.6,75-75
	C361,6.599,354.401,0,346,0z"/>
<path style="fill:#FF9F00;" d="M181,347c0,41.4-33.6,75-75,75s-75-33.6-75-75H181z"/>
<path style="fill:#FF9100;" d="M181,347c0,41.4-33.6,75-75,75v-75H181z"/>
<path style="fill:#FDBF00;" d="M106,242c-25.201,0-45,26.4-45,60s19.799,60,45,60s45-26.4,45-60S131.201,242,106,242z"/>
<path style="fill:#FF9F00;" d="M151,302c0,33.6-19.799,60-45,60V242C131.201,242,151,268.4,151,302z"/>
<path style="fill:#FFD400;" d="M211,347c0,8.401-6.599,15-15,15H16c-8.401,0-16-6.599-16-15s7.599-15,16-15h180
	C204.401,332,211,338.599,211,347z"/>
<path style="fill:#FDBF00;" d="M211,347c0,8.401-6.599,15-15,15h-90v-30h90C204.401,332,211,338.599,211,347z"/>
<path style="fill:#FF9F00;" d="M331,227c0,41.4-33.6,75-75,75s-75-33.6-75-75H331z"/>
<path style="fill:#FF9100;" d="M331,227c0,41.4-33.6,75-75,75v-75H331z"/>
<path style="fill:#FDBF00;" d="M256,122c-25.201,0-45,26.4-45,60s19.799,60,45,60s45-26.4,45-60S281.201,122,256,122z"/>
<path style="fill:#FF9F00;" d="M301,182c0,33.6-19.799,60-45,60V122C281.201,122,301,148.4,301,182z"/>
<path style="fill:#FFD400;" d="M361,227c0,8.401-6.599,15-15,15H166c-8.401,0-15-6.599-15-15s6.599-15,15-15h180
	C354.401,212,361,218.599,361,227z"/>
<path style="fill:#FDBF00;" d="M361,227c0,8.401-6.599,15-15,15h-90v-30h90C354.401,212,361,218.599,361,227z"/>
<path style="fill:#FF9F00;" d="M481,347c0,41.4-33.6,75-75,75s-75-33.6-75-75H481z"/>
<path style="fill:#FF9100;" d="M481,347c0,41.4-33.6,75-75,75v-75H481z"/>
<path style="fill:#FDBF00;" d="M406,242c-25.201,0-45,26.4-45,60s19.799,60,45,60s45-26.4,45-60S431.201,242,406,242z"/>
<path style="fill:#FF9F00;" d="M451,302c0,33.6-19.799,60-45,60V242C431.201,242,451,268.4,451,302z"/>
<path style="fill:#FFD400;" d="M512,347c0,8.401-6.599,15-15,15H316c-8.401,0-15-6.599-15-15s6.599-15,15-15h181
	C505.401,332,512,338.599,512,347z"/>
<path style="fill:#FDBF00;" d="M512,347c0,8.401-6.599,15-15,15h-91v-30h91C505.401,332,512,338.599,512,347z"/>
<path style="fill:#384949;" d="M286,90h-30V0h90c8.401,0,15,6.599,15,15C361,56.4,327.4,90,286,90z"/>
<g>
</g>
<g>
</g>
<g>
</g>
<g>
</g>
<g>
</g>
<g>
</g>
<g>
</g>
<g>
</g>
<g>
</g>
<g>
</g>
<g>
</g>
<g>
</g>
<g>
</g>
<g>
</g>
<g>
</g>
</svg>
