<svg height="464pt" viewBox="0 -20 464 464" width="464pt" xmlns="http://www.w3.org/2000/svg"><path d="m16 0h432c8.835938 0 16 7.164062 16 16v200c0 30.929688-25.070312 56-56 56h-352c-30.929688 0-56-25.070312-56-56v-200c0-8.835938 7.164062-16 16-16zm0 0" fill="#cfdfe8"/><path d="m16 0h432c8.835938 0 16 7.164062 16 16v144h-464v-144c0-8.835938 7.164062-16 16-16zm0 0" fill="#36afad"/><g fill="#5a6470"><path d="m312 208h-256c-3.234375 0-6.152344-1.949219-7.390625-4.9375s-.550781-6.429688 1.734375-8.71875l8-8c2.289062-2.285156 5.730469-2.972656 8.71875-1.734375s4.9375 4.15625 4.9375 7.390625h236.6875l5.65625-5.65625c3.140625-3.03125 8.128906-2.988281 11.214844.097656 3.085937 3.085938 3.128906 8.074219.097656 11.214844l-8 8c-1.5 1.5-3.535156 2.34375-5.65625 2.34375zm0 0"/><path d="m312 248h-256c-3.234375 0-6.152344-1.949219-7.390625-4.9375s-.550781-6.429688 1.734375-8.71875l8-8c2.289062-2.285156 5.730469-2.972656 8.71875-1.734375s4.9375 4.15625 4.9375 7.390625h236.6875l5.65625-5.65625c3.140625-3.03125 8.128906-2.988281 11.214844.097656 3.085937 3.085938 3.128906 8.074219.097656 11.214844l-8 8c-1.5 1.5-3.535156 2.34375-5.65625 2.34375zm0 0"/><path d="m360 192h16v16h-16zm0 0"/><path d="m392 224h16v16h-16zm0 0"/><path d="m360 224h16v16h-16zm0 0"/><path d="m392 192h16v16h-16zm0 0"/></g><path d="m32 72c-4.417969 0-8-3.582031-8-8v-16c0-13.253906 10.746094-24 24-24h40c4.417969 0 8 3.582031 8 8s-3.582031 8-8 8h-40c-4.417969 0-8 3.582031-8 8v16c0 4.417969-3.582031 8-8 8zm0 0" fill="#fff"/><path d="m416 136h-32c-4.417969 0-8-3.582031-8-8s3.582031-8 8-8h32c4.417969 0 8-3.582031 8-8v-16c0-4.417969 3.582031-8 8-8s8 3.582031 8 8v16c0 13.253906-10.746094 24-24 24zm0 0" fill="#fff"/><path d="m32 120c-4.417969 0-8-3.582031-8-8v-16c0-4.417969 3.582031-8 8-8s8 3.582031 8 8v16c0 4.417969-3.582031 8-8 8zm0 0" fill="#fff"/><path d="m56 424c-4.417969 0-8-3.582031-8-8-.039062-8.96875 3.539062-17.578125 9.921875-23.878906 3.859375-3.414063 6.074219-8.320313 6.074219-13.476563s-2.214844-10.0625-6.074219-13.476562c-6.355469-6.316407-9.929687-14.90625-9.929687-23.867188 0-8.960937 3.574218-17.550781 9.929687-23.867187 3.847656-3.40625 6.058594-8.292969 6.078125-13.433594 0-4.417969 3.582031-8 8-8s8 3.582031 8 8c.035156 8.964844-3.542969 17.566406-9.929688 23.855469-3.859374 3.40625-6.070312 8.308593-6.070312 13.457031s2.210938 10.050781 6.070312 13.457031c6.359376 6.320313 9.929688 14.914063 9.929688 23.878907 0 8.964843-3.570312 17.558593-9.929688 23.878906-3.84375 3.425781-6.050781 8.324218-6.070312 13.472656 0 4.417969-3.582031 8-8 8zm0 0" fill="#36afad"/><path d="m136 424c-4.417969 0-8-3.582031-8-8-.039062-8.96875 3.539062-17.578125 9.921875-23.878906 3.859375-3.414063 6.074219-8.320313 6.074219-13.476563s-2.214844-10.0625-6.074219-13.476562c-6.355469-6.316407-9.929687-14.90625-9.929687-23.867188 0-8.960937 3.574218-17.550781 9.929687-23.867187 3.847656-3.40625 6.058594-8.292969 6.078125-13.433594 0-4.417969 3.582031-8 8-8s8 3.582031 8 8c.035156 8.964844-3.542969 17.566406-9.929688 23.855469-3.859374 3.40625-6.070312 8.308593-6.070312 13.457031s2.210938 10.050781 6.070312 13.457031c6.359376 6.320313 9.929688 14.914063 9.929688 23.878907 0 8.964843-3.570312 17.558593-9.929688 23.878906-3.84375 3.425781-6.050781 8.324218-6.070312 13.472656 0 4.417969-3.582031 8-8 8zm0 0" fill="#36afad"/><path d="m216 424c-4.417969 0-8-3.582031-8-8-.039062-8.96875 3.539062-17.578125 9.921875-23.878906 3.859375-3.414063 6.074219-8.320313 6.074219-13.476563s-2.214844-10.0625-6.074219-13.476562c-6.355469-6.316407-9.929687-14.90625-9.929687-23.867188 0-8.960937 3.574218-17.550781 9.929687-23.867187 3.847656-3.40625 6.058594-8.292969 6.078125-13.433594 0-4.417969 3.582031-8 8-8s8 3.582031 8 8c.035156 8.964844-3.542969 17.566406-9.929688 23.855469-3.859374 3.40625-6.070312 8.308593-6.070312 13.457031s2.210938 10.050781 6.070312 13.457031c6.359376 6.320313 9.929688 14.914063 9.929688 23.878907 0 8.964843-3.570312 17.558593-9.929688 23.878906-3.84375 3.425781-6.050781 8.324218-6.070312 13.472656 0 4.417969-3.582031 8-8 8zm0 0" fill="#36afad"/><path d="m296 424c-4.417969 0-8-3.582031-8-8-.039062-8.96875 3.539062-17.578125 9.921875-23.878906 3.859375-3.414063 6.074219-8.320313 6.074219-13.476563s-2.214844-10.0625-6.074219-13.476562c-6.355469-6.316407-9.929687-14.90625-9.929687-23.867188 0-8.960937 3.574218-17.550781 9.929687-23.867187 3.847656-3.40625 6.058594-8.292969 6.078125-13.433594 0-4.417969 3.582031-8 8-8s8 3.582031 8 8c.035156 8.964844-3.542969 17.566406-9.929688 23.855469-3.859374 3.40625-6.070312 8.308593-6.070312 13.457031s2.210938 10.050781 6.070312 13.457031c6.359376 6.320313 9.929688 14.914063 9.929688 23.878907 0 8.964843-3.570312 17.558593-9.929688 23.878906-3.84375 3.425781-6.050781 8.324218-6.070312 13.472656 0 4.417969-3.582031 8-8 8zm0 0" fill="#36afad"/><path d="m432 352.160156v-48.160156c0-4.417969-3.582031-8-8-8h-32c-4.417969 0-8 3.582031-8 8v48.160156c-13.773438 10.332032-19.390625 28.316406-13.949219 44.648438 5.445313 16.335937 20.730469 27.351562 37.949219 27.351562s32.503906-11.015625 37.949219-27.351562c5.441406-16.332032-.175781-34.316406-13.949219-44.648438zm0 0" fill="#36afad"/><path d="m408 392.039062c-4.441406 0-8.039062-3.597656-8.039062-8.039062s3.597656-8.039062 8.039062-8.039062 8.039062 3.597656 8.039062 8.039062c-.015624 4.433594-3.605468 8.023438-8.039062 8.039062zm0-8.039062" fill="#fff"/></svg>