<svg height="512pt" viewBox="0 -4 512 512" width="512pt" xmlns="http://www.w3.org/2000/svg" xmlns:xlink="http://www.w3.org/1999/xlink"><linearGradient id="a"><stop offset="0" stop-color="#662d91"/><stop offset=".437" stop-color="#3873b3"/><stop offset="1" stop-color="#00c9dd"/></linearGradient><linearGradient id="b" gradientTransform="matrix(1.069671 0 0 -1.069671 0 506.95165)" gradientUnits="userSpaceOnUse" x1="33.2156" x2="464.0022" xlink:href="#a" y1="392.6998" y2="-38.0868"/><linearGradient id="c" gradientTransform="matrix(1.069671 0 0 -1.069671 0 506.95165)" gradientUnits="userSpaceOnUse" x1="91.0794" x2="521.866" xlink:href="#a" y1="450.5636" y2="19.7771"/><linearGradient id="d" gradientTransform="matrix(1.069671 0 0 -1.069671 0 506.95165)" gradientUnits="userSpaceOnUse" x1="107.0345" x2="537.821" xlink:href="#a" y1="466.5187" y2="35.7321"/><linearGradient id="e" gradientTransform="matrix(1.069671 0 0 -1.069671 0 506.95165)" gradientUnits="userSpaceOnUse" x1="122.9896" x2="553.7761" xlink:href="#a" y1="482.4738" y2="51.6872"/><linearGradient id="f" gradientTransform="matrix(1.069671 0 0 -1.069671 0 506.95165)" gradientUnits="userSpaceOnUse" x1="5.3315" x2="436.1181" xlink:href="#a" y1="364.8157" y2="-65.9709"/><linearGradient id="g" gradientTransform="matrix(1.069671 0 0 -1.069671 0 506.95165)" gradientUnits="userSpaceOnUse" x1="224.7031" x2="655.4896" xlink:href="#a" y1="584.1873" y2="153.4007"/><linearGradient id="h" gradientTransform="matrix(1.069671 0 0 -1.069671 0 506.95165)" gradientUnits="userSpaceOnUse" x1="244.6469" x2="675.4334" xlink:href="#a" y1="604.131" y2="173.3445"/><linearGradient id="i" gradientTransform="matrix(1.069671 0 0 -1.069671 0 506.95165)" gradientUnits="userSpaceOnUse" x1="244.6962" x2="675.4828" xlink:href="#a" y1="604.1804" y2="173.3939"/><linearGradient id="j" gradientTransform="matrix(1.069671 0 0 -1.069671 0 506.95165)" gradientUnits="userSpaceOnUse" x1="276.557" x2="707.3436" xlink:href="#a" y1="636.0412" y2="205.2546"/><linearGradient id="k" gradientTransform="matrix(1.069671 0 0 -1.069671 0 506.95165)" gradientUnits="userSpaceOnUse" x1="200.7705" x2="631.557" xlink:href="#a" y1="560.2546" y2="129.4681"/><path d="m25.601562 324.371094h25.597657v17.066406c0 4.714844 3.824219 8.535156 8.535156 8.535156h8.167969c-1.164063 13.105469-6.269532 25.550782-14.652344 35.695313-12.554688 15.027343-19.332031 34.042969-19.117188 53.621093v14.652344c-13.328124 4.714844-20.3125 19.339844-15.601562 32.667969 4.714844 13.332031 19.339844 20.316406 32.667969 15.605469 13.332031-4.714844 20.316406-19.339844 15.605469-32.671875-2.578126-7.289063-8.3125-13.023438-15.605469-15.601563v-14.652344c-.136719-15.496093 5.179687-30.554687 15.019531-42.527343 11.082031-13.203125 17.671875-29.589844 18.824219-46.789063h8.824219c4.710937 0 8.535156-3.820312 8.535156-8.535156v-17.066406h34.132812v17.066406c0 4.714844 3.820313 8.535156 8.53125 8.535156h8.824219c1.152344 17.199219 7.742187 33.582032 18.824219 46.789063 9.84375 11.972656 15.160156 27.03125 15.019531 42.527343v14.652344c-13.3125 4.667969-20.316406 19.246094-15.648437 32.554688 4.667968 13.308594 19.246093 20.316406 32.554687 15.648437 7.453125-2.617187 13.277344-8.53125 15.777344-16.023437 62.574219-3.941406 112.382812-59.347656 112.382812-127.007813v-128.609375h8.535157c4.710937 0 8.53125-3.820312 8.53125-8.53125v-68.269531c0-4.710937 3.820312-8.53125 8.535156-8.53125h8.53125c0 4.710937 3.824218 8.53125 8.535156 8.53125h17.066406c14.140625 0 25.601563-11.460937 25.601563-25.597656v-68.269531c0-14.136719-11.460938-25.597657-25.601563-25.597657h-17.066406c-4.710938 0-8.535156 3.820313-8.535156 8.53125v.335938c-38.554688 3.042969-68.28125 35.230469-68.265625 73.90625v104.960937c0 4.710938 3.820312 8.53125 8.535156 8.53125h8.535156v128.605469c0 58.351563-42.285156 106.128906-95.574219 109.953125-2.644531-7.054688-8.265624-12.585938-15.359374-15.121094v-14.652344c.21875-19.578124-6.558594-38.59375-19.117188-53.625-8.382812-10.140624-13.492188-22.585937-14.648438-35.691406h8.164063c4.714844 0 8.535156-3.824218 8.535156-8.535156v-17.066406h34.132813c14.140625 0 25.601562-11.460938 25.601562-25.601563v-264.53125c0-14.140625-11.460937-25.601562-25.601562-25.601562h-196.269532c-14.140624 0-25.601562 11.460937-25.601562 25.601562v264.53125c0 14.140625 11.460938 25.601563 25.601562 25.601563zm17.066407 162.132812c-4.714844 0-8.535157-3.820312-8.535157-8.53125 0-4.714844 3.820313-8.535156 8.535157-8.535156 4.710937 0 8.53125 3.820312 8.53125 8.535156 0 4.710938-3.820313 8.53125-8.53125 8.53125zm341.332031-435.199218h8.535156c4.710938 0 8.53125 3.820312 8.53125 8.535156v68.265625c0 4.710937-3.820312 8.535156-8.53125 8.535156h-8.535156zm-68.265625 65.707031c.003906-29.257813 22.101563-53.792969 51.199219-56.847657v67.941407h-8.535156c-14.136719 0-25.597657 11.460937-25.597657 25.601562v59.730469h-17.066406zm-119.46875 352.425781c4.714844 0 8.535156 3.820312 8.535156 8.535156 0 4.710938-3.820312 8.535156-8.535156 8.535156-4.710937 0-8.53125-3.824218-8.53125-8.535156 0-4.714844 3.820313-8.535156 8.53125-8.535156zm-110.933594-136.53125h-17.066406v-8.535156h17.066406zm85.335938 0h-17.066407v-8.535156h17.066407zm-153.601563-298.667969c0-4.710937 3.820313-8.535156 8.535156-8.535156h196.265626c4.710937 0 8.535156 3.824219 8.535156 8.535156v264.53125c0 4.714844-3.824219 8.535157-8.535156 8.535157h-196.265626c-4.714843 0-8.535156-3.820313-8.535156-8.535157zm0 0" fill="url(#b)"/><path d="m136.53125 85.4375c4.714844 0 8.535156-3.820312 8.535156-8.53125v-25.601562c0-4.710938-3.820312-8.535157-8.535156-8.535157-4.710938 0-8.53125 3.824219-8.53125 8.535157v25.601562c0 4.710938 3.820312 8.53125 8.53125 8.53125zm0 0" fill="url(#c)"/><path d="m170.667969 85.4375c4.710937 0 8.53125-3.820312 8.53125-8.53125v-25.601562c0-4.710938-3.820313-8.535157-8.53125-8.535157-4.714844 0-8.535157 3.824219-8.535157 8.535157v25.601562c0 4.710938 3.820313 8.53125 8.535157 8.53125zm0 0" fill="url(#d)"/><path d="m204.800781 85.4375c4.710938 0 8.535157-3.820312 8.535157-8.53125v-25.601562c0-4.710938-3.824219-8.535157-8.535157-8.535157-4.714843 0-8.535156 3.824219-8.535156 8.535157v25.601562c0 4.710938 3.820313 8.53125 8.535156 8.53125zm0 0" fill="url(#e)"/><path d="m119.464844 290.238281c32.992187 0 59.734375-26.742187 59.734375-59.734375 0-32.988281-26.742188-59.734375-59.734375-59.734375-32.988282 0-59.730469 26.746094-59.730469 59.734375.039063 32.972656 26.761719 59.691406 59.730469 59.734375zm-8.53125-101.546875v16.214844c0 4.710938 3.820312 8.53125 8.535156 8.53125 4.710938 0 8.53125-3.820312 8.53125-8.53125v-16.214844c23.089844 4.714844 37.984375 27.25 33.273438 50.335938-4.714844 23.089844-27.25 37.984375-50.339844 33.273437-23.085938-4.714843-37.984375-27.25-33.269532-50.339843 3.417969-16.753907 16.511719-29.847657 33.269532-33.269532zm0 0" fill="url(#f)"/><path d="m469.332031 93.972656c0-4.714844-3.820312-8.535156-8.53125-8.535156h-17.066406c-4.714844 0-8.535156 3.820312-8.535156 8.535156 0 4.710938 3.820312 8.535156 8.535156 8.535156h17.066406c4.710938-.003906 8.53125-3.824218 8.53125-8.535156zm0 0" fill="url(#g)"/><path d="m503.464844 85.4375h-17.066406c-4.710938 0-8.53125 3.820312-8.53125 8.535156 0 4.710938 3.820312 8.535156 8.53125 8.535156h17.066406c4.714844 0 8.535156-3.824218 8.535156-8.535156 0-4.714844-3.820312-8.535156-8.535156-8.535156zm0 0" fill="url(#h)"/><path d="m443.734375 59.839844c2.261719 0 4.433594-.902344 6.03125-2.5l8.535156-8.535156c3.390625-3.273438 3.484375-8.675782.210938-12.066407-3.277344-3.386719-8.679688-3.484375-12.066407-.207031-.070312.066406-.140624.136719-.210937.207031l-8.535156 8.535157c-3.332031 3.332031-3.328125 8.734374.003906 12.066406 1.597656 1.597656 3.769531 2.496094 6.03125 2.5zm0 0" fill="url(#i)"/><path d="m483.898438 23.203125 8.535156-8.53125c3.390625-3.273437 3.484375-8.675781.210937-12.066406-3.277343-3.390625-8.675781-3.484375-12.066406-.210938-.070313.070313-.140625.140625-.210937.210938l-8.535157 8.535156c-3.386719 3.273437-3.480469 8.675781-.207031 12.0625 3.273438 3.390625 8.675781 3.484375 12.066406.210937.070313-.066406.140625-.136718.207032-.210937zm0 0" fill="url(#j)"/><g fill="url(#k)"><path d="m437.699219 130.605469c-3.332031 3.332031-3.332031 8.734375 0 12.066406l8.535156 8.53125c3.390625 3.277344 8.789063 3.183594 12.066406-.207031 3.191407-3.308594 3.191407-8.550782 0-11.855469l-8.535156-8.535156c-3.332031-3.332031-8.734375-3.332031-12.066406 0zm0 0"/><path d="m480.367188 185.339844c3.390624 3.273437 8.792968 3.179687 12.066406-.210938 3.191406-3.308594 3.191406-8.550781 0-11.855468l-8.535156-8.535157c-3.390626-3.273437-8.792969-3.179687-12.066407.210938-3.191406 3.304687-3.191406 8.546875 0 11.855469zm0 0"/></g></svg>